<svg width="26" height="26" viewBox="0 0 26 26" fill="none" xmlns="http://www.w3.org/2000/svg">
<path d="M23.1562 7.10938C23.1562 5.98757 22.2468 5.07812 21.125 5.07812C20.0032 5.07812 19.0938 4.16868 19.0938 3.04688C19.0938 1.92507 18.1843 1.01562 17.0625 1.01562H8.9375C7.81569 1.01562 6.90625 1.92507 6.90625 3.04688C6.90625 4.16868 5.99681 5.07812 4.875 5.07812C3.75319 5.07812 2.84375 5.98757 2.84375 7.10938V16.25C2.84375 17.2029 3.28118 18.0535 3.96617 18.6123L11.717 24.528C12.0668 24.8133 12.5134 24.9844 13 24.9844C13.4866 24.9844 13.9332 24.8133 14.283 24.528L22.0338 18.6123C22.7188 18.0536 23.1562 17.2029 23.1562 16.25V11.1719" stroke="#9397B2" stroke-width="1.75" stroke-miterlimit="10" stroke-linecap="round" stroke-linejoin="round"/>
<path d="M13 8.125L14.1939 10.5442L16.8637 10.9321L14.9318 12.8152L15.3879 15.4741L13 14.2188L10.6121 15.4741L11.0682 12.8152L9.13631 10.9321L11.8061 10.5442L13 8.125Z" stroke="#9397B2" stroke-width="1.3" stroke-miterlimit="10" stroke-linecap="round" stroke-linejoin="round"/>
<path d="M23.1562 11.1719H21.125" stroke="#9397B2" stroke-width="1.75" stroke-miterlimit="10" stroke-linecap="round" stroke-linejoin="round"/>
<path d="M23.1562 15.2344H21.125" stroke="#9397B2" stroke-width="1.75" stroke-miterlimit="10" stroke-linecap="round" stroke-linejoin="round"/>
<path d="M4.875 11.1719H2.84375" stroke="#9397B2" stroke-width="1.75" stroke-miterlimit="10" stroke-linecap="round" stroke-linejoin="round"/>
<path d="M4.875 15.2344H2.84375" stroke="#9397B2" stroke-width="1.75" stroke-miterlimit="10" stroke-linecap="round" stroke-linejoin="round"/>
</svg>
