<svg width="26" height="21" viewBox="0 0 26 21" fill="none" xmlns="http://www.w3.org/2000/svg">
<path d="M2.90625 15.0938V2.90625C2.90625 1.78444 3.81569 0.875 4.9375 0.875H20.7812C21.9031 0.875 22.8125 1.78444 22.8125 2.90625V11.0312" stroke="#9397B2" stroke-width="1.75" stroke-miterlimit="10" stroke-linecap="round" stroke-linejoin="round"/>
<path d="M16.9219 17.125C16.9219 18.2468 16.0124 19.1562 14.8906 19.1562H10.8281C9.70632 19.1562 8.79688 18.2468 8.79688 17.125C8.79688 16.0032 7.88743 15.0938 6.76562 15.0938H2.90625C1.78444 15.0938 0.875 16.0032 0.875 17.125C0.875 18.2468 1.78444 19.1562 2.90625 19.1562H22.8125C23.9343 19.1562 24.8438 18.2468 24.8438 17.125C24.8438 16.0032 23.9343 15.0938 22.8125 15.0938H18.9531C17.8313 15.0938 16.9219 16.0032 16.9219 17.125Z" stroke="#9397B2" stroke-width="1.75" stroke-miterlimit="10" stroke-linecap="round" stroke-linejoin="round"/>
<path d="M10.8281 4.9375V11.0312L15.9062 7.98438L10.8281 4.9375Z" stroke="#9397B2" stroke-width="1.75" stroke-miterlimit="10" stroke-linecap="round" stroke-linejoin="round"/>
</svg>
