<svg width="26" height="26" viewBox="0 0 26 26" fill="none" xmlns="http://www.w3.org/2000/svg">
<g clip-path="url(#clip0_727_4239)">
<mask id="mask0_727_4239" style="mask-type:luminance" maskUnits="userSpaceOnUse" x="0" y="0" width="26" height="27">
<path d="M25.125 25.1274V0.877441H0.875V25.1274H25.125Z" fill="white" stroke="white" stroke-width="1.75"/>
</mask>
<g mask="url(#mask0_727_4239)">
<path d="M23.0039 25.2407H2.99609V0.764162H23.0039V25.2407Z" stroke="#9397B2" stroke-width="1.75" stroke-miterlimit="10"/>
</g>
<path d="M19.957 3.81006H6.04297" stroke="#9397B2" stroke-width="1.75" stroke-miterlimit="10"/>
<mask id="mask1_727_4239" style="mask-type:luminance" maskUnits="userSpaceOnUse" x="0" y="0" width="26" height="27">
<path d="M25.125 25.1274V0.877441H0.875V25.1274H25.125Z" fill="white" stroke="white" stroke-width="1.75"/>
</mask>
<g mask="url(#mask1_727_4239)">
<path d="M6.04297 0.76465V22.1943H13.8125L19.957 16.0498V0.76465" stroke="#9397B2" stroke-width="1.75" stroke-miterlimit="10"/>
</g>
<path d="M13.8633 22.1929V16.0991H19.957" stroke="#9397B2" stroke-width="1.75" stroke-miterlimit="10"/>
<mask id="path-7-inside-1_727_4239" fill="white">
<path d="M10.6641 9.19238H9.14062V10.7158H10.6641V9.19238Z"/>
</mask>
<path d="M10.6641 9.19238H9.14062V10.7158H10.6641V9.19238Z" fill="black"/>
<path d="M10.6641 9.19238V7.44238H12.4141V9.19238H10.6641ZM9.14062 9.19238H7.39062V7.44238H9.14062V9.19238ZM9.14062 10.7158V12.4658H7.39062V10.7158H9.14062ZM10.6641 10.7158H12.4141V12.4658H10.6641V10.7158ZM10.6641 9.19238V10.9424H9.14062V9.19238V7.44238H10.6641V9.19238ZM9.14062 9.19238H10.8906V10.7158H9.14062H7.39062V9.19238H9.14062ZM9.14062 10.7158V8.96582H10.6641V10.7158V12.4658H9.14062V10.7158ZM10.6641 10.7158H8.91406V9.19238H10.6641H12.4141V10.7158H10.6641Z" fill="#9397B2" mask="url(#path-7-inside-1_727_4239)"/>
<mask id="path-9-inside-2_727_4239" fill="white">
<path d="M9.14062 7.66895H10.6641V6.14551H9.14062V7.66895Z"/>
</mask>
<path d="M9.14062 7.66895H10.6641V6.14551H9.14062V7.66895Z" fill="black"/>
<path d="M9.14062 7.66895V9.41895H7.39062V7.66895H9.14062ZM10.6641 7.66895H12.4141V9.41895H10.6641V7.66895ZM10.6641 6.14551V4.39551H12.4141V6.14551H10.6641ZM9.14062 6.14551H7.39062V4.39551H9.14062V6.14551ZM9.14062 7.66895V5.91895H10.6641V7.66895V9.41895H9.14062V7.66895ZM10.6641 7.66895H8.91406V6.14551H10.6641H12.4141V7.66895H10.6641ZM10.6641 6.14551V7.89551H9.14062V6.14551V4.39551H10.6641V6.14551ZM9.14062 6.14551H10.8906V7.66895H9.14062H7.39062V6.14551H9.14062Z" fill="#9397B2" mask="url(#path-9-inside-2_727_4239)"/>
<mask id="path-11-inside-3_727_4239" fill="white">
<path d="M10.6641 12.2393H9.14062V13.7627H10.6641V12.2393Z"/>
</mask>
<path d="M10.6641 12.2393H9.14062V13.7627H10.6641V12.2393Z" fill="black"/>
<path d="M10.6641 12.2393V10.4893H12.4141V12.2393H10.6641ZM9.14062 12.2393H7.39062V10.4893H9.14062V12.2393ZM9.14062 13.7627V15.5127H7.39062V13.7627H9.14062ZM10.6641 13.7627H12.4141V15.5127H10.6641V13.7627ZM10.6641 12.2393V13.9893H9.14062V12.2393V10.4893H10.6641V12.2393ZM9.14062 12.2393H10.8906V13.7627H9.14062H7.39062V12.2393H9.14062ZM9.14062 13.7627V12.0127H10.6641V13.7627V15.5127H9.14062V13.7627ZM10.6641 13.7627H8.91406V12.2393H10.6641H12.4141V13.7627H10.6641Z" fill="#9397B2" mask="url(#path-11-inside-3_727_4239)"/>
<path d="M16.8594 13.0015H12.1875" stroke="#9397B2" stroke-width="1.75" stroke-miterlimit="10"/>
<path d="M16.8594 9.95459H12.1875" stroke="#9397B2" stroke-width="1.75" stroke-miterlimit="10"/>
<path d="M16.8594 6.90771H12.1875" stroke="#9397B2" stroke-width="1.75" stroke-miterlimit="10"/>
</g>
<defs>
<clipPath id="clip0_727_4239">
<rect width="26" height="26" fill="white"/>
</clipPath>
</defs>
</svg>
